Coordinates
version=1
nRows=20
nColumns=34
inDegrees=yes

Units are S.I. units (second, meters, Newtons, ...)
If the header above contains a line with 'inDegrees', this indicates whether rotational values are in degrees (yes) or radians (no).

endheader
time	pelvis_tilt	pelvis_list	pelvis_rotation	pelvis_tx	pelvis_ty	pelvis_tz	hip_flexion_r	hip_adduction_r	hip_rotation_r	knee_angle_r	ankle_angle_r	subtalar_angle_r	mtp_angle_r	hip_flexion_l	hip_adduction_l	hip_rotation_l	knee_angle_l	ankle_angle_l	subtalar_angle_l	mtp_angle_l	lumbar_extension	lumbar_bending	lumbar_rotation	arm_flex_r	arm_add_r	arm_rot_r	elbow_flex_r	pro_sup_r	arm_flex_l	arm_add_l	arm_rot_l	elbow_flex_l	pro_sup_l
      0.00000000	     -1.28833606	     -2.21813511	     -2.53980338	     -0.00320136	      1.18223316	     -0.10581893	     -4.34964622	      3.06196154	     -2.37755310	      1.23504249	      6.26285127	     -3.90314288	      0.00000000	     -4.75019380	     -1.16491081	     -1.87682444	      0.00000000	      7.62516067	     -2.67476320	      0.00000000	     -5.21658778	      1.72203855	      0.24613178	      3.53861616	     -9.34277025	     23.88219218	     25.84421656	     76.33984518	      2.77681082	     -7.97724616	     23.45987425	     24.92890372	     67.43571815
      0.01666670	     -3.17650521	     -2.10204805	     -3.01234631	     -0.00400869	      1.18129513	     -0.10481060	     -1.61643687	      3.33383679	     -0.81923406	      2.52759357	      9.10585604	     -3.08160416	      0.00000000	     -2.44273708	     -0.56114050	     -1.40004422	      0.00000000	      7.86194244	     -2.26018087	      0.00000000	     -2.90957498	      1.73577150	      0.60849911	      3.34859164	     -9.39465046	     24.27092142	     25.61165656	     76.41130583	      2.80278431	     -7.83521956	     24.10133298	     25.00278065	     67.79160912
      0.03333330	     -4.01984169	     -1.15771979	     -3.45225120	     -0.00241511	      1.18037858	     -0.10387024	     -0.99156902	      2.52746443	     -1.10303956	      2.06365395	      9.66468229	     -2.41437116	      0.00000000	     -1.60345581	      0.44810638	     -1.85678730	      0.00000000	      8.06920412	     -2.18032868	      0.00000000	     -1.64811682	      0.40763115	      0.95640994	      3.36451268	     -9.25544356	     25.05884710	     25.76547306	     76.55975287	      2.89739271	     -8.47370040	     25.40469548	     24.87748859	     68.35304822
      0.05000000	     -3.93511635	     -0.85661492	     -3.58890330	     -0.00229216	      1.18100103	     -0.10350271	     -1.30812866	      2.24578745	     -1.87313792	      1.61971679	     10.34192969	     -0.71507330	      0.00000000	     -1.85441556	      0.83199352	     -1.89987787	      0.00000000	      8.25060901	     -2.69637357	      0.00000000	     -1.52088390	      0.07045983	      1.42615283	      3.33920086	     -9.41274642	     27.19085085	     25.59298228	     76.90080676	      3.80509105	     -9.02873635	     30.23112293	     23.99762827	     70.43598665
      0.06666670	     -4.08735859	     -0.70015443	     -3.62350850	     -0.00228050	      1.18183327	     -0.10360783	     -1.37405742	      2.16258027	     -1.70486099	      1.02938438	     10.28285131	     -0.72517717	      0.00000000	     -1.74807580	      1.07564880	     -1.82404585	      0.00000000	      8.51430540	     -2.76130745	      0.00000000	     -1.35612735	     -0.11934862	      1.42084309	      3.31543539	     -9.26728475	     27.16688272	     25.64595874	     76.87723361	      3.84048816	     -9.02715127	     30.32896376	     23.92418799	     70.49761401
      0.08333330	     -4.11876721	     -0.69967569	     -3.62624061	     -0.00250840	      1.18029631	     -0.10344635	     -1.39279327	      2.19875820	     -1.70607261	      1.03008647	     10.28072319	     -0.72606442	      0.00000000	     -1.76139163	      1.12800995	     -1.82139872	      0.00000000	      8.51480683	     -2.76062333	      0.00000000	     -1.35461389	     -0.11307529	      1.42462576	      3.31876833	     -9.26001082	     27.16663532	     25.64808956	     76.87701605	      3.84368131	     -9.02773527	     30.32928706	     23.92389810	     70.49839137
      0.10000000	     -4.17910692	     -0.48192237	     -3.56187440	     -0.00218280	      1.18098634	     -0.10349617	     -1.67525189	      1.97605971	     -1.70094923	      0.34414318	      9.86798591	     -0.84451384	      0.00000000	     -1.73928379	      1.40825738	     -1.67619519	      0.00000000	      8.55871868	     -2.89074931	      0.00000000	     -1.13639229	     -0.30599579	      1.64977858	      3.13270476	     -9.00819645	     27.00723238	     25.61183459	     76.83552699	      3.99681028	     -9.02957509	     30.30512920	     23.88866188	     70.59483654
      0.11666670	     -4.19380163	     -0.45060027	     -3.59570950	     -0.00196181	      1.18032965	     -0.10341234	     -1.69596450	      1.95240923	     -1.73943641	      0.22583455	      9.81432762	     -0.89133396	      0.00000000	     -1.76684432	      1.47265838	     -1.65817086	      0.00000000	      8.50270501	     -2.90853352	      0.00000000	     -1.09358517	     -0.26181544	      1.68697852	      3.16242500	     -8.90484193	     26.97150389	     25.63809956	     76.82810763	      4.09606598	     -8.98199991	     30.28312370	     23.92204169	     70.60940994
      0.13333330	     -4.21581657	     -0.41147932	     -3.48897734	     -0.00250006	      1.18045055	     -0.10336989	     -1.76851937	      1.93463006	     -1.71958434	      0.00000000	      9.63840407	     -0.91995903	      0.00000000	     -1.72619594	      1.51647538	     -1.63767159	      0.00000000	      8.33403315	     -2.95636325	      0.00000000	     -1.08329568	     -0.32570302	      1.77248994	      3.12881453	     -8.76022953	     26.87925935	     25.65359217	     76.81129769	      4.23762252	     -8.92741145	     30.20436271	     23.98522790	     70.63330167
      0.15000000	     -4.13587871	     -0.38619642	     -3.51256099	     -0.00204519	      1.18045599	     -0.10310369	     -1.88033823	      1.91878637	     -1.85241732	      0.00000000	      9.15306206	     -1.09420827	      0.00000000	     -1.83572606	      1.53546149	     -1.55022670	      0.00000000	      7.86934514	     -3.08865708	      0.00000000	     -1.02623336	     -0.38559167	      2.00311375	      2.91293825	     -8.60966164	     26.58258214	     25.63595358	     76.76154463	      4.34718032	     -8.96947462	     29.94625031	     24.08107762	     70.68470666
      0.16666670	     -4.17127876	     -0.38585090	     -3.58660400	     -0.00200125	      1.18072080	     -0.10307674	     -1.80003803	      1.94206790	     -1.86183596	      0.00000000	      9.16473982	     -1.14425468	      0.00000000	     -1.82584196	      1.52794780	     -1.53569813	      0.00000000	      7.84082185	     -3.13270041	      0.00000000	     -1.10064370	     -0.41460512	      1.99247726	      2.89172040	     -8.61268838	     26.51591913	     25.63519873	     76.75119975	      4.39022557	     -8.90268887	     29.90309860	     24.11968617	     70.69544967
      0.18333330	     -4.16897060	     -0.38113981	     -3.58455765	     -0.00189961	      1.18135109	     -0.10316410	     -1.79377872	      1.94377258	     -1.86128659	      0.00000000	      9.16472097	     -1.14467927	      0.00000000	     -1.82753976	      1.52542493	     -1.53578535	      0.00000000	      7.83990459	     -3.13347097	      0.00000000	     -1.10043776	     -0.41377709	      1.99341376	      2.89191149	     -8.61160839	     26.51489102	     25.63569270	     76.75104656	      4.39055276	     -8.90230604	     29.90220832	     24.12025919	     70.69559467
      0.20000000	     -4.21738303	     -0.33598929	     -3.61648393	     -0.00262641	      1.18508801	     -0.10360540	     -1.69740308	      1.87435327	     -1.97351022	      0.00000000	      9.01246516	     -1.22702087	      0.00000000	     -1.71665780	      1.54706142	     -1.55220597	      0.00000000	      7.57008303	     -3.17363280	      0.00000000	     -1.07475291	     -0.31217548	      2.06489553	      2.89444131	     -8.39789661	     26.37857905	     25.70686101	     76.73050264	      4.52471476	     -8.77276865	     29.77610459	     24.24336548	     70.71443233
      0.21666670	     -4.66817409	     -0.26857395	     -3.52752260	     -0.00297987	      1.18511474	     -0.10358269	     -1.13195301	      1.81421519	     -1.68006097	      0.00000000	      7.97444906	     -2.56093210	      0.00000000	     -1.09243245	      1.58728123	     -0.71148007	      0.00000000	      6.30809428	     -5.08692320	      0.00000000	     -0.80645650	     -0.44112198	      2.45382563	      1.66602627	     -7.83261455	     19.32225393	     27.13211415	     76.16764264	      3.92155917	     -8.28328145	     24.67770946	     25.62835166	     72.24137152
      0.23333330	     -4.64288480	     -0.26716032	     -3.52901354	     -0.00216232	      1.18513609	     -0.10368892	     -1.12269249	      1.81142912	     -1.68051324	      0.00000000	      7.97428290	     -2.56080527	      0.00000000	     -1.07787712	      1.58143287	     -0.71170008	      0.00000000	      6.30770015	     -5.08648190	      0.00000000	     -0.80674701	     -0.44145824	      2.45389861	      1.66597280	     -7.83187123	     19.32229878	     27.13218880	     76.16781190	      3.92238054	     -8.28361573	     24.67748512	     25.62848476	     72.24161367
      0.25000000	     -4.73881711	     -0.26397826	     -3.53147211	     -0.00226172	      1.18266650	     -0.10344285	     -1.05111586	      1.80106926	     -2.01115994	      0.00000000	      7.73092958	     -2.55137435	      0.00000000	     -0.92898919	      1.54004400	     -0.97401921	      0.00000000	      6.06553770	     -4.98585046	      0.00000000	     -0.81046596	     -0.53218352	      2.42490695	      1.55287530	     -7.66367035	     19.32657078	     27.12532163	     76.20811858	      4.05664764	     -8.29064609	     24.63546305	     25.66007115	     72.30357599
      0.26666670	     -4.73391362	     -0.26320147	     -3.53168911	     -0.00233514	      1.18103296	     -0.10346170	     -1.05609047	      1.79866802	     -2.01242224	      0.00000000	      7.72969515	     -2.55120169	      0.00000000	     -0.92457896	      1.53750675	     -0.97459228	      0.00000000	      6.06481342	     -4.98512823	      0.00000000	     -0.81016720	     -0.53218928	      2.42593395	      1.55380678	     -7.66429912	     19.32620738	     27.12538999	     76.20827114	      4.05576273	     -8.29084109	     24.63533896	     25.65975454	     72.30388396
      0.28333330	     -4.73282654	     -0.25202480	     -3.44209970	     -0.00293192	      1.17885939	     -0.10281796	     -1.03840642	      1.82413103	     -2.03751084	      0.00000000	      7.72078037	     -2.54954432	      0.00000000	     -0.90819632	      1.54218146	     -1.00690418	      0.00000000	      6.06707789	     -4.97260517	      0.00000000	     -0.78525606	     -0.54698110	      2.46241072	      1.59349215	     -7.69416487	     19.30851236	     27.13174978	     76.21423790	      4.03046521	     -8.30518094	     24.62830672	     25.65250248	     72.31666340
      0.30000000	     -4.72365504	     -0.24123500	     -3.43662453	     -0.00372173	      1.17969010	     -0.10299260	     -1.01637642	      1.84206532	     -2.03693778	      0.00000000	      7.72431071	     -2.54867413	      0.00000000	     -0.91335406	      1.54179091	     -1.00644355	      0.00000000	      6.06902512	     -4.96873479	      0.00000000	     -0.78094765	     -0.54862892	      2.46193127	      1.59423220	     -7.69787970	     19.30614981	     27.13174652	     76.21501257	      4.03089259	     -8.30545650	     24.62732433	     25.65304743	     72.31846021
      0.31666670	     -4.72835937	     -0.23720161	     -3.43484381	     -0.00383501	      1.17827250	     -0.10302814	     -1.00199023	      1.87115321	     -2.03730888	      0.00000000	      7.73084699	     -2.54990763	      0.00000000	     -0.92529566	      1.54091935	     -1.00271984	      0.00000000	      6.07311683	     -4.96198360	      0.00000000	     -0.77825026	     -0.55266920	      2.46203860	      1.60222724	     -7.70371458	     19.30199521	     27.13338414	     76.21603313	      4.03563259	     -8.30669159	     24.62546218	     25.65467638	     72.32102218
